<svg xmlns="http://www.w3.org/2000/svg" version="1.1" viewBox="0 0 1080 1080" width="1080" height="1080">
<rect fill="rgb(255,255,255)" x="0" y="0" width="1080" height="1080"/><defs/><!--ITEM: Illustration component 1--><g transform="translate(97.0 961.0) rotate(0.0 440.5 32.5)  scale(0.482686828840675 0.4797047970479705)"><svg width="1825.2" height="135.5" viewBox="0.0 0.0 1825.2 135.5"><path d="m1825.2 0-52.3 135.5h-1772.9l77.7-135.5z" fill="#9b3c82"/><g fill="#fff"><path d="m129.7 135.6 75.6-135.6h-11.5l-75.6 135.6z"/><path d="m247.7 0-74.9 135.5h-11.4l74.8-135.5z"/><path d="m1671 0-53.4 135.5h-10.8l53.5-135.5z"/><path d="m1696.2 0-52.6 135.6h10.7l52.7-135.6z"/></g></svg></g><!--ITEM: Illustration component 2--><g transform="translate(396.0 976.0) rotate(0.0 42.5 11.0)  scale(0.6395353211595904 0.6470588235294118)"><svg width="132.909" height="34.0" viewBox="0.0 0.0 132.909 34.0"><g id="bodypositive-i2">
    <ellipse cx="66.455" cy="17" rx="66.455" ry="17" style="         fill: #5b2448;       "/>
  </g>
</svg></g><!--ITEM: Illustration component 3--><g transform="translate(204.0 60.0) rotate(0.0 371.5 468.5)  scale(0.46220839813374803 0.4621682943671698)"><svg width="1607.5" height="2027.4" viewBox="0.0 0.0 1607.5 2027.4"><path d="m949.6 667.1c-5.5-66.1 2.5-87 16.1-121.8 14.1.8 27.8-3.4 32-7.2 17.4-15.9 3.9-58.1.3-71.6 4.4-4 8.7-14 1.3-15.7-3.4-.9-6.9-2-9.5-4.5s-4.7-6.4-6.4-9.5c-1.3-2.4-2.6-4.9-3.9-7.3-1.8-3.4-3.5-6.9-5.3-10.3v-.1c-1.4-2.5-2.8-5-4.4-7.4-5.1-8-11-15.4-17.6-22.1-16.1-16-37.9-24.9-60.7-22.7-10.1 1-20 3.8-29.3 8.2 0 0-.1 0-.1.1-.6.3-1.2.6-1.8.8-53 25.8-53 91.7-20.8 123.3.6-.2 2.3-.6 2.5-.7.3-.1 16.6-4.9 22.9-7.1 47 61.9-22.9 111.4-22.9 111.4l2.4 77.6 119.9 56.4c.1-.1-13.3-53.4-14.7-69.8z" fill="#f4ada2"/><ellipse cx="933.2" cy="496" fill="#e57281" opacity=".52" rx="18.3" ry="18.3"/><path d="m943.9 438.7c-8.3 5.8-10.9 15.2-7.6 18.8s12.4 1.5 19.4-5.7c7.3-7.4 10.7-15.7 7.6-18.8-3.2-3.2-11.2 0-19.4 5.7z" fill="#5b2448"/><path d="m988.8 493.1c-1.1 1.5-2.5 2.8-4.2 3.6-1.6.8-3.5 1.3-5.3 1.3-.9 0-1.8-.1-2.7-.3s-1.7-.5-2.5-1c-1.7-.9-3.1-2.2-4.1-3.7l-.1-.1c-.5-.7-1.5-1-2.2-.5-.6.4-.8 1.1-.7 1.7.7 2.7 2.3 5 4.6 6.5 1.1.8 2.4 1.4 3.7 1.8s2.7.6 4 .6c2.7 0 5.4-.9 7.7-2.4 1.1-.7 2.1-1.6 3-2.7s1.5-2.3 1.9-3.7c.2-.9-.3-1.7-1.2-1.9-.8-.1-1.5.2-1.9.8z" fill="#9b3c82"/><path d="m958.2 463.3c2.8-3.2 9.8-10.9 14.4-20.4.6-1.3 2.2-1.9 3.6-1.2 3.4 1.7 8.5 5.4 4.5 11.5-4.9 7.4-17.2 13.5-21.8 12.4-.7-.2-1.2-1-1-1.7-0-.3.1-.4.3-.6z" fill="#5b2448"/><path d="m934 370.2c-23.9-13.5 15.8-60.1 30-57.1 11.9 2.6-1.2 73.5-30 57.1z" fill="rgb(252,102,1)"/><path d="m884.9 483.7c16.6 5 19.6-11.2 27-22.1 6.6-9.7 13-25.6 20.8-33.8 13.3 7 39.3 3.7 51-5.8 46.1-37.2-5.9-98.7-44.7-55-10.3-2.9-76.3-26.5-121.1 39-26.2 38.3-29.5 51.8-100.3 66-28.8 5.8-102.2 8.6-166.3 87.5-56.2 69.1-8.6 102.6-110.6 163.6-88.9 53.1-66.5 141-48.7 159.4 55.3 56.9 221.8-20 280.3-77.8 30.6-30.2 44.3-105.8 83.2-140.4s141.8-65.9 126.1-147.5c-.1-0-5.9-35.9 3.3-33.1z" fill="#5b2448"/><path d="m885.2 484.1s-20.2-10.4-36.5 1.3c-15.3 11.1-5.2 36.6 29.4 42.4 7 1 14.2.8 21.2-.5z" fill="#f4ada2"/><path d="m804.3 621.8s50-71 64.9-131.9c-.6.2-1.1.4-1.6.6-2.8 1-5.4 1.9-7.7 2.6-.3.1-.6.2-.9.3l-.7.2c-.4.1-.8.3-1.2.4-.9.3-1.7.5-2.5.8-.3.1-.6.2-.9.3-3 .9-5.4 1.6-7.5 2.2-.3.1-.6.2-.9.2s-.6.1-.8.2-.5.1-.8.2-.5.1-.8.2c-.4.1-.7.2-1.1.3-.2 0-.4.1-.5.1-.7.2-1.3.4-2 .5-32.2-31.5-32.2-97.5 20.8-123.3.6-.3 1.2-.6 1.8-.8 0 0 .1 0 .1-.1 9.2-4.4 19.1-7.1 29.3-8.1 22.8-2.1 44.6 6.7 60.7 22.7 6.6 6.7 12.5 14.1 17.6 22.1 1.6 2.4 3 4.9 4.4 7.4v.1c1.9 3.4 3.6 6.8 5.3 10.3 1.3 2.5 2.5 4.9 3.9 7.3 1.8 3.1 3.8 7 6.4 9.5s6.1 3.6 9.5 4.5c7.4 1.7 3.1 11.7-1.3 15.7 3.6 13.5 17.1 55.7-.3 71.6-7.1 6.5-33.4 7.9-46.3 7.3-33.9 15.2-38.1 74.9-40.6 99.2" fill="none"/><path d="m891.5 510.8c1 .1 1.9-.6 2-1.6.1-.6-.1-1.1-.5-1.5-16.5-16.7-33.7-9.7-34.4-9.4-.9.3-1.4 1.4-1.1 2.3s1.4 1.4 2.3 1.1c0 0 .1 0 .1-.1.7-.3 15.7-6.3 30.4 8.6.5.4.8.6 1.2.6z" fill="#9b3c82"/><path d="m931.8 544.8c-2.4 4.2 4.4 17.4 24.8 25.8 2.5-8.1 5.5-16.1 9-25-5-.6-10-1.7-15.7-2.5-5.6-.9-15.1-3.4-18.1 1.7z" fill="#5b2448"/><path d="m897.5 532.7c1.4-.2 2.4-1.4 2.2-2.8s-1.4-2.3-2.8-2.2c-5 .6-9.7.8-13.9.8.2 1.7.4 3.4.5 5h.1c4.6 0 9.3-.3 13.9-.8z" fill="#9b3c82"/><path d="m912 471.9c13.9-20.9 33.6-64.4 27-104.4 0 0-8.1-8.1-27-6 1 18.7-.1 58.9-25.8 122.6 4.3.9 13.7 6 25.8-12.2z" fill="rgb(252,102,1)"/><ellipse cx="929.1" cy="358.1" fill="rgb(252,102,1)" rx="10.7" ry="12.7" transform="matrix(.9437 -.3307 .3307 .9437 -66.146 327.403)"/><path d="m930.2 372.6c-5.5 0-11-4-13.2-10.3-1.3-3.5-1.3-7.4 0-10.9 2.1-6.1 8.7-9.3 14.8-7.2.9.3 1.7.7 2.5 1.2 3.2 1.9 5.6 4.9 6.8 8.5 1.3 3.5 1.3 7.4 0 10.9-1.2 3.3-3.8 6-7.1 7.2-1.3.4-2.5.6-3.8.6zm-2.3-25c-.8 0-1.6.1-2.4.4-2.2.8-4 2.6-4.7 4.8-1 2.6-.9 5.5 0 8.1 1.9 5.6 7.2 8.8 11.8 7.2 2.2-.8 4-2.6 4.7-4.8 1-2.6.9-5.5 0-8.1-.9-2.7-2.7-4.9-5.1-6.4-1.2-.8-2.7-1.2-4.3-1.2z" fill="#fcb6b1"/><path d="m922.8 367.8c11.1-26.4-51.2-39.4-61-27.9-8.2 9.6 47.6 59.7 61 27.9z" fill="rgb(252,102,1)"/><path d="m348 1755.5c-20.5 50.4 58.7 111.6 280 46 0 0-247.9-148.2-280-46z" fill="#5b2448"/><path d="m488.3 1698.1c7 92.2 41.8 137 41.5 239.3-.2 55.5-4.1 83.3 43.1 83.3 35.5 0 45.6-7.9 117.1 0 84.5 9.4 75.1-60.8 17.3-60.8-58.4 0-87.1-1.4-75.7-176.5z" fill="#f4ada2"/><path d="m360.7 536.3s-76.2 47.9-198.9-199.2c152.4 67.2 248.3 156.9 198.9 199.2z" fill="#5b2448"/><path d="m1172.3 607.5s-102.5 49.8-38.3 225.4c86.8-127.9 86.3-247 38.3-225.4z" fill="#5b2448"/><path d="m681.2 400.1c7.5 20.3 14.5 119.8-171.3 171.7 68.8-180.8 159.3-198.3 171.3-171.7z" fill="#5b2448"/><path d="m158.5 337.1c3.7-6.1 45.7-88 73.6-92.1 39.2-5.7 82.2 26 62.9 64.4-40.4 80.5-33.6 133-66.3 198.4.1-0-70.8-169.7-70.2-170.7z" fill="#f4ada2"/><path d="m939.2 663.8c13.1-43.3 174.6-14.1 297.9 9.8 0 0 67.8-50.7 131.1-83.4 71.1-36.7 79.1-64.7 84.4-85.2 5.2-20 18.7-57.2 33.2-68.4 23.2-18 .8 43.8 12.1 54.4s25.1-9.3 11.5-31.3c-10.4-16.8-17.9-28.1-5.7-28.2 19.3-.1 36.3 26.9 36.3 26.9s5.3-10 2.1-44.6c-2-21 21.3-7.6 26.6 23.6 0 0 3.6-7.3 6.4-26.7 3.3-23.2 19.5.9 16.4 39-.5-.8 6.6-14 8.2-15.9 10.7-13 23.6 47.8-59.2 158.3-79.5 105.9-169.6 228.3-319 243.9-205.3 21.5-309.5-82.2-282.3-172.2z" fill="#f4ada2"/><path d="m175.2 308c22.5-39.1 41.8-76.3 54.1-105.5 6.1-14.6 10.5-36 13.3-68.3 8.4-95.6-7-143.4 31.2-132.7 41 11.4 46.9 106.8 82.5 170.6 51.4 91.8-40.3 59.4-85.6 198.6-17.7-24.7-69.9-52.9-95.5-62.7z" fill="rgb(248,248,247)"/><path d="m193 276.3c-1.1 2-2.2 4.1-3.4 6.2 17.1 7.2 61.4 27.7 92.6 58.4 1-2.3 2.1-4.5 3.1-6.7-16.5-15.8-35.8-28.6-51.6-37.6-13.1-7.7-26.7-14.5-40.7-20.3z" fill="#fff"/><path d="m781.8 603.5c13.4-15.9-331.8-351.9-483.2-407.5-45.8-16.8-89.5 3.8-91.4 20.2-11.4 3.1-15.9 16.4-13.6 23.5-6.5 3-12.6 14.1-7.7 24.4-7.7 8.6-6.1 18.8-.7 26.3 8.5-14.8 38.5-39.1 60.1-22.7 25 18.9-54 24.5-41.1 41.1s75.7-16.2 108.2 16c106.7 105.4 194.3 346.8 411.3 347.9 23.2.1 36.8-43.9 58.1-69.2z" fill="#f4ada2"/><path d="m858 1119.9c-19.8 36.4-183.2 12.3-261.5-343.6 0 .1 298.6 263.7 261.5 343.6z" fill="#5b2448"/><path d="m494.8 1750.2s7 33.6 13.6 52.1c9.2 7.9 88.6 14.9 121.9 1.2z" fill="#9b3c82"/><path d="m474.1 776.4c-180.1 84.2-80.7 253.4-63 622.6 4.7 98.8-65.3 362.4-65.3 362.4 14.9-28.2 57.1-58.8 153.9 10.3 57.1 40.8 130.6 31.7 130.6 31.7 35-351.3-10.2-291.1 52.4-781 21-164.2-85.7-303.5-208.6-246z" fill="rgb(252,102,1)"/><path d="m258.4 418.1s-30.1-47.8-98.4-81.8l80.7 166.6z" fill="#9b3c82"/><path d="m928.2 853.5s-136 224-414.8 223.6c-246.3-.4-403.8-47.7-480.2-166.3-64.7-100.5-41.3-283.1 126-575 0 0 56.3 30.8 83.5 101.6 43.4 112.7 106.5 109.4 122 95.6 0 0-126.4 116.2-127.5 244 0 0 42.3 33.2 127.3 11.9 60.5-15.1 166.6-76.9 364.3-2.4 129 48.7 199.4 67 199.4 67z" fill="rgb(252,102,1)"/><path d="m1165.2 660.1c-40.3 53.4-7.9 130-25.9 177.4 0 0-82.6-94.2-29.7-186.6z" fill="#9b3c82"/><path d="m698.6 502.2c-64.7 9.2-144.4 73.2-191 69.4 46-70.8 103.2-67.7 134.7-120.1z" fill="#9b3c82"/><path d="m853.6 597.7s7.6-36.4-59.3-58c-66.4-21.5-104.3-110.5-113.1-139.6 3.4 7.7 7.7 60.4-40.5 95-48.2 34.5-90.5 26.8-133.1 76.5 103.4 107.2 204.3 113.1 204.3 113.1-46.8 24.5-124.6 16.2-158.9 30.5-16.6 6.9-16.2 27.3-15.9 35.6l6-.3c-1.6-21.8 6.6-37.4 17.2-25.9 31 38.5 15.1 141.1 134.6 231.8 90.4 68.6 179.3 118.4 163.1 163.4 26.2-44.7 82.7-138.9 101.1-328.2 0 0 86.3 39.3 180.1 45.7 4.1-24.4-14.9-58.8-19.9-98.5-11.3-90.3 50.5-130.5 50.5-130.5s-63.4 53.9-136.8 27.7c-35.9-12.9-64.8-6.5-84.7 11.5-.1 15.7 4.3 43.7 4.3 43.7-42.2 2.7-101.6-32.6-99-93.5z" fill="rgb(68,25,94)"/><path d="m853.9 609.4c-.3-3.8-.5-7.7-.3-11.7 0 0 .1-.3.1-.8-6.8 25.9-22.7 47-47 62.1-24.7 15.3-57.8 24.2-94.9 25.8-2.9 1.5-6 2.9-9.2 4.2 41.6-.3 78.9-9.6 106.2-26.6 21.5-13.4 36.7-31.3 45.1-53z" fill="#fff"/><path d="m952.4 691.4c-1.3.1-2.7.1-4.1.1 7.6 38.4 10.9 67 11 100.4.5.2 1.9.8 4 1.7.1-34.2-3.2-63.2-10.9-102.2z" fill="#fff"/><path d="m432.7 1344.8c.1-1.1-.7-2-1.8-2.1s-2.1.6-2.2 1.7c0 .4-4.2 40.6-19.5 103.5-.9 9.3-2 19.1-3.4 29.2 2-7.4 3.9-14.8 5.8-22.2 16.6-66.7 21.1-109.7 21.1-110.1z" fill="#fcb6b1"/><path d="m474.4 1080.3c48.9 0 95.5-3.9 138.6-11.5 22.9-4.1 44.8-9.7 65.8-15.9.2-1.4.5-2.9.6-4.3-21.3 6.4-43.7 12.2-67.1 16.3-51.5 9.1-107.9 12.8-167.5 11-23.3-.7-46.1-2.6-68-4.8.1 1.2.4 2.8.6 4.2 21.7 2.1 44.2 3.9 67.3 4.6 10 .2 19.9.4 29.7.4z" fill="#fcb6b1"/><path d="m191.1 790.2c0 1.1.9 2 2 2h.3c20.7-3 35.7-7.7 48-12.4-2.1-1.2-3.4-2.3-4.2-2.8-14.9 5.3-30.5 9.2-44.3 11.3-1.1.1-1.8.9-1.8 1.9z" fill="#fcb6b1"/><path d="m521.7 1855.3c3.6 16.9 11.2 59.1 6.6 86.1-7.6 44.8-4.2 81.4 44.5 85 35.4 2.6 44.2-8.7 115.6-.7 84.5 9.4 108.6-21.7 103.7-37.4-5.8-18.7-44.6-20.9-86.4-37.4-53.5-21.2-72.9-29.5-76.3-102.2-35.6 5.5-71.7 7.7-107.7 6.6z" fill="rgb(248,248,247)"/><path d="m631.8 1875.1c-.3-2.2-.6-4.5-.9-6.9-44.1 6.5-87.5 6.7-105.6 6.4.4 2.3.7 4.6 1.1 7 2.8 0 6.1.1 9.9.1 21.8-.1 58.4-1.1 95.5-6.6z" fill="#fff"/><g fill="#9b3c82"><path d="m1529.7 489.8c-.2.3-.3.7-.3 1.1 0 1.1.9 2 2 2 .7 0 1.3-.3 1.7-.9 6.4-9.6 8.9-20.7 6.9-33.7-.9-1.3-2.8-4.3-5.8-7.8 3.3 11.5 4.4 26.1-4.5 39.3z"/><path d="m1549.3 493.3c-.3.4-.5.8-.5 1.3 0 1.1.9 2 2 2 .6 0 1.1-.3 1.5-.7 10.9-12.6 15.5-37 16.5-58.6-.8-5-2.3-9.4-3.8-13.4.6 24.3-3.9 55.8-15.7 69.4z"/><path d="m1564.7 502c0 1.1.9 2 2 2 .6 0 1.1-.2 1.5-.7 8.8-9.9 16.2-26.6 22.1-49.6.5-1.8.9-3.6 1.3-5.4.5-6.9.4-13.3-.2-19.1-2.8 16.2-10.6 53.9-26.2 71.4-.3.4-.5.9-.5 1.4z"/><path d="m1551.6 515c-.9 0-22.7.2-41.2 28-.2.3-.3.7-.3 1.1 0 1.1.9 2 2 2 .7 0 1.3-.3 1.7-.9 17.2-25.8 37.6-26.2 37.8-26.2 1.1 0 2-.9 2-2s-.9-2-2-2z"/><path d="m1204 720.4c0 1.1.9 2 2 2 .8 0 1.5-.5 1.8-1.2 8-18.7 19-34.9 29.4-47.7-.1.1-.1.1-.1.1-1.5-.3-2.9-.6-4.4-.8-10.2 12.8-20.7 28.7-28.5 46.9-.1.2-.2.4-.2.7z"/><path d="m257.8 208.1c1.1.2 2.1-.6 2.3-1.7s-.6-2.1-1.7-2.3c-17.7-2.7-35.8 1.7-49.3 6.8-1.1 1.7-1.7 3.6-1.9 5.3 13.3-5.3 32.4-10.9 50.6-8.1z"/><path d="m250.4 226.1c.1 0 .1 0 0 0 1.2.1 2.2-.6 2.3-1.7s-.7-2.1-1.8-2.2c-25-3.3-44.7 4.7-57.9 13.1 0 1.6.2 3.1.6 4.4 12.7-8.4 32-16.9 56.8-13.6z"/><path d="m244.1 244c1.1.1 2.1-.7 2.2-1.8s-.7-2.1-1.8-2.2c-27.7-3.2-47.7 8.9-60 20 .3 1.4.7 2.7 1.4 4.1l-.1.1c11.5-10.8 31-23.3 58.3-20.2z"/></g><path d="m925.6 370.9c.9-1.9 1.5-4 1.7-6.1s0-4.2-.7-6.2c-.6-1.9-1.7-3.8-3-5.3s-2.8-2.8-4.5-3.8c1 1.6 1.9 3.2 2.7 4.9.7 1.6 1.2 3.3 1.5 5 .4 2.5.3 5-.4 7.4-.2.8-.5 1.6-.8 2.3-1.5 3-3.9 5.5-6.9 7.1-1 .5-2.1 1-3.1 1.5 0 .7-.1 1.5-.1 2.2 1.5-.2 3-.5 4.4-1.1 3.9-1.3 7.2-4.2 9.2-7.9z" fill="#fcb6b1"/></svg></g><!--ITEM: Illustration component 4--><g transform="translate(761.0 983.0) rotate(-15.494176244754797 16.5 8.5)  scale(2.7102496714848883 2.5567754549556323)"><svg width="12.176" height="6.649" viewBox="0.0 0.0 12.176 6.649"><ellipse cx="6.088" cy="3.325" fill="rgb(91,36,72)" rx="2.9" ry="6.3" transform="matrix(.2905 -.9569 .9569 .2905 1.1382 8.184)"/></svg></g></svg>